<svg xmlns="http://www.w3.org/2000/svg" xmlns:xlink="http://www.w3.org/1999/xlink" viewBox="0 0 532.2 470.9"><defs><style>.cls-1{fill:#2db670;}.cls-2{fill:#fff;}.cls-13,.cls-3,.cls-4,.cls-6{fill:none;}.cls-11,.cls-12,.cls-3,.cls-4,.cls-6{stroke:#000;}.cls-11,.cls-12,.cls-3{stroke-miterlimit:10;}.cls-3,.cls-4{stroke-width:6px;}.cls-13,.cls-4,.cls-6{stroke-linecap:round;stroke-linejoin:round;}.cls-5{fill:#cb2026;}.cls-6{stroke-width:4px;}.cls-7{fill:url(#radial-gradient);}.cls-8{fill:#050606;}.cls-9{fill:url(#radial-gradient-2);}.cls-10{fill:url(#radial-gradient-3);}.cls-11{fill:#353535;}.cls-12{fill:#8c8c8c;}.cls-13{stroke:#7b7b7b;stroke-width:5px;}</style><radialGradient id="radial-gradient" cx="390.07" cy="344.62" r="6.14" gradientTransform="translate(-322.7 -52.4) scale(1.84 1.15)" gradientUnits="userSpaceOnUse"><stop offset="0" stop-color="#fff"/><stop offset="0.23" stop-color="#fcfcfc" stop-opacity="0.99"/><stop offset="0.37" stop-color="#f4f4f4" stop-opacity="0.96"/><stop offset="0.48" stop-color="#e6e6e6" stop-opacity="0.9"/><stop offset="0.58" stop-color="#d2d2d2" stop-opacity="0.82"/><stop offset="0.67" stop-color="#b7b7b7" stop-opacity="0.72"/><stop offset="0.75" stop-color="#979797" stop-opacity="0.59"/><stop offset="0.83" stop-color="#717171" stop-opacity="0.44"/><stop offset="0.91" stop-color="#454545" stop-opacity="0.27"/><stop offset="0.97" stop-color="#141414" stop-opacity="0.08"/><stop offset="1" stop-opacity="0"/></radialGradient><radialGradient id="radial-gradient-2" cx="376.47" cy="284.54" r="3.38" gradientTransform="translate(-43.3 -49.5) scale(1.06 1.15)" xlink:href="#radial-gradient"/><radialGradient id="radial-gradient-3" cx="448" cy="281.12" r="3.38" gradientTransform="translate(-43.8 -55.4) scale(1.06 1.15)" xlink:href="#radial-gradient"/></defs><g id="Layer_1" data-name="Layer 1"><rect class="cls-1" x="86.5" y="238.1" width="488.1" height="57.6" rx="28.2" transform="translate(-241.2 242.6) rotate(-45)"/><rect class="cls-1" x="191.7" y="322.1" width="467.6" height="55.84" rx="27.9" transform="translate(-272.1 334.1) rotate(-45)"/><rect class="cls-1" x="343" y="367" width="386.8" height="56.35" rx="28.2" transform="translate(-271.6 425.8) rotate(-45)"/><rect class="cls-1" x="214.6" y="124.2" width="160.5" height="56.35" rx="28.2" transform="translate(-170.7 183.8) rotate(-45)"/><path class="cls-1" d="M623.3,287.3l-10.7-8.4a26.8,26.8,0,0,1-20.5,9.5A27.1,27.1,0,0,1,574,241.1l-34.2-44.7a35.7,35.7,0,0,1-20.1,6.3A35.2,35.2,0,0,1,497,140.5l-4-5.3L197,406.7l10.7,12.9,5.3-4.1,5.9,3.8a34.6,34.6,0,1,1,49.8,48.1l5.8,4.2-12.6,11.1,71.4-42.9,112.9,30.7L620.4,301.6l-7.6-9.9Z" transform="translate(-149.3 -69.3)"/></g><g id="Layer_2" data-name="Layer 2"><path class="cls-2" d="M516.6,273.1l32.5-39.3a21.3,21.3,0,0,0-2.8-29.9h0a21.2,21.2,0,0,0-29.9,2.9l-21.7,26.1,6.5-8.3a146.1,146.1,0,0,0-221.5,24.6l7.7,6.7-.5-.4-26.6-21.8a21.2,21.2,0,0,0-29.9,2.9h0a21.4,21.4,0,0,0,2.9,29.9l39.4,32.4-11.8-9.8a146,146,0,1,0,285.9,41.6,144.4,144.4,0,0,0-18.9-71.9" transform="translate(-149.3 -69.3)"/><line class="cls-3" x1="135.5" y1="185" x2="135" y2="184.6"/><path class="cls-4" d="M284.3,254l-26.6-21.9a21.4,21.4,0,0,0-29.9,2.9h0a21.3,21.3,0,0,0,2.9,29.9l39.4,32.4" transform="translate(-149.3 -69.3)"/><path class="cls-4" d="M514,271.6l32.5-39.4a21,21,0,0,0-2.9-29.8h0a21.3,21.3,0,0,0-29.9,2.8l-21.6,26.2" transform="translate(-149.3 -69.3)"/><path class="cls-3" d="M525.3,257.2a146,146,0,1,1-273,71.9,146.3,146.3,0,0,1,6-41.6" transform="translate(-149.3 -69.3)"/><path class="cls-3" d="M277.1,247.6a146,146,0,0,1,221.5-24.5" transform="translate(-149.3 -69.3)"/></g><g id="Layer_3" data-name="Layer 3"><path class="cls-5" d="M429.4,328.3a23.1,23.1,0,0,1,1.2,5.2c1.6,14.3-9.9,27.4-25.8,29.1s-29.9-8.4-31.5-22.7a21.1,21.1,0,0,1-.2-2.5" transform="translate(-149.3 -69.3)"/><path class="cls-6" d="M430,328.3a23.1,23.1,0,0,1,1.2,5.2c1.6,14.3-9.9,27.4-25.8,29.1s-29.9-8.4-31.5-22.7a21.1,21.1,0,0,1-.2-2.5" transform="translate(-149.3 -69.3)"/><line class="cls-6" x1="224.6" y1="267.7" x2="280.6" y2="258.7"/><ellipse class="cls-7" cx="395.5" cy="345" rx="13.2" ry="5.6" transform="matrix(1, -0.08, 0.08, 1, -174.69, -37.81)"/><ellipse class="cls-1" cx="389.1" cy="266.3" rx="93.4" ry="39.3" transform="translate(-189.2 1.4) rotate(-9.9)"/><circle class="cls-8" cx="204.8" cy="210" r="10.6"/><circle class="cls-8" cx="280.6" cy="198.3" r="10.6"/><ellipse class="cls-9" cx="355.6" cy="278.6" rx="4.2" ry="3.1" transform="translate(-169.7 -41.1) rotate(-4.4)"/><ellipse class="cls-10" cx="430.9" cy="268.8" rx="4.2" ry="3.1" transform="translate(-168.7 -35.3) rotate(-4.4)"/></g><g id="Layer_5" data-name="Layer 5"><polygon class="cls-11" points="103 60.1 110.8 72.2 122.3 78.7 112.4 87.5 107.2 100.9 99.5 88.8 87.9 82.3 97.9 73.5 103 60.1"/><polygon class="cls-11" points="279.7 4.8 284 13.2 290.3 17.9 285.1 23.8 282.6 32.9 278.3 24.5 272 19.8 277.2 13.9 279.7 4.8"/><polygon class="cls-11" points="368.4 69.5 372.7 77.5 378.9 81.9 373.7 87.5 371.1 96.1 366.9 88.2 360.6 83.8 365.8 78.2 368.4 69.5"/><polygon class="cls-11" points="441.4 189.4 446 197.4 452.8 201.7 447 207.3 444.1 216 439.5 208.1 432.6 203.8 438.4 198.1 441.4 189.4"/><polygon class="cls-11" points="43.3 168 47.9 176 54.7 180.3 48.9 185.9 46 194.6 41.4 186.7 34.5 182.4 40.3 176.7 43.3 168"/><circle class="cls-11" cx="28.2" cy="215.3" r="7"/><circle class="cls-11" cx="114.4" cy="141.4" r="7.8"/><circle class="cls-11" cx="406.4" cy="58.2" r="4.5"/><circle class="cls-11" cx="178.4" cy="5" r="4.5"/><circle class="cls-12" cx="70.4" cy="236.1" r="4.5"/><circle class="cls-12" cx="452.9" cy="97.9" r="4.5"/><circle class="cls-11" cx="493.2" cy="146.5" r="4.5"/><circle class="cls-12" cx="294.3" cy="99.4" r="4.5"/><circle class="cls-11" cx="172.2" cy="121.9" r="4.5"/><circle class="cls-11" cx="248" cy="59" r="5.3"/></g><g id="Layer_6" data-name="Layer 6"><line class="cls-13" x1="196.4" y1="99.9" x2="215.6" y2="136.3"/><line class="cls-13" x1="229.7" y1="94.2" x2="233.9" y2="135.2"/><line class="cls-13" x1="260.6" y1="92.6" x2="256.8" y2="133.6"/></g></svg>