<svg xmlns="http://www.w3.org/2000/svg" viewBox="0 0 904.03 333.07"><defs><style>.cls-1{font-size:150px;fill:#f0f4f7;font-family:KardustExpanded, Kardust;}.cls-2{fill:#c00;}</style></defs><g id="Layer_2" data-name="Layer 2"><g id="Layer_1-2" data-name="Layer 1"><text class="cls-1" transform="translate(0 246.84)"><tspan xml:space="preserve">M A S    E R</tspan></text><polyline class="cls-2" points="613.52 39 736.72 2 695.72 59 609.02 50.74 613.52 39"/><polyline class="cls-2" points="338.02 2 379.02 59 465.72 50.74 461.22 39"/><line class="cls-2" x1="461.22" y1="39" x2="338.02" y2="2"/><polygon class="cls-2" points="700 6.12 568.88 0 541.01 17 541.01 47 700 6.12"/><polyline class="cls-2" points="540.72 333.06 540.78 69.29 593.72 49 555.72 178.86 540.72 333.06"/><polyline class="cls-2" points="532.72 333.06 532.65 69.29 479.72 49 517.72 178.86 532.72 333.06"/><polygon class="cls-2" points="373.22 6.12 504.35 0 532.21 17 532.21 47 373.22 6.12"/></g></g></svg>